<svg width="400" height="400" viewBox="0 0 400 400" fill="none" xmlns="http://www.w3.org/2000/svg">
<path d="M322.061 35.5667C322.062 -5.20254 158.597 -5.20915 117.731 55.9356C76.866 117.08 77.9584 198.625 77.9584 198.625C77.9584 198.625 76.8682 300.525 97.2998 341.282C117.731 382.039 322.06 422.823 322.061 361.672C322.062 300.521 322.062 300.521 322.061 280.146C322.06 259.77 218.807 320.935 199.464 280.152C180.122 239.368 177.941 198.605 199.464 178.223C220.987 157.842 322.06 239.389 322.06 198.625C322.06 157.862 322.06 76.3359 322.061 35.5667Z" fill="url(#paint0_linear_133_464)"/>
<defs>
<linearGradient id="paint0_linear_133_464" x1="293.749" y1="256.955" x2="293.749" y2="-141.365" gradientUnits="userSpaceOnUse">
<stop stop-color="#C500FF"/>
<stop offset="0.75" stop-color="#BF2679"/>
</linearGradient>
</defs>
</svg>
